<svg xmlns="http://www.w3.org/2000/svg" width="31" height="31" viewBox="0 0 31 31" fill="none">
  <g clip-path="url(#clip0_3_1217)">
    <path d="M15.667 0C7.38271 0 0.666992 6.81333 0.666992 15.218C0.666992 23.6227 7.38271 30.436 15.667 30.436C23.9512 30.436 30.6669 23.6227 30.6669 15.218C30.6581 6.81709 23.9476 0.0089805 15.667 0ZM21.984 15.7029C21.8802 15.9142 21.7114 16.0855 21.503 16.1909V16.1963L12.9316 20.5443C12.4023 20.8127 11.7588 20.5949 11.4942 20.0579C11.419 19.9052 11.3803 19.7367 11.3812 19.566V10.87C11.381 10.2697 11.8604 9.78282 12.4522 9.7825C12.6186 9.78244 12.7828 9.82167 12.9316 9.89715L21.503 14.2452C22.0326 14.5129 22.248 15.1656 21.984 15.7029Z" fill="#00C968"/>
  </g>
  <defs>
    <clipPath id="clip0_3_1217">
      <rect width="30" height="30.4361" fill="white" transform="translate(0.666992)"/>
    </clipPath>
  </defs>
</svg>