<svg xmlns="http://www.w3.org/2000/svg" width="126" height="126" viewBox="0 0 126 126" fill="none">
  <g clip-path="url(#clip0_3_1796)">
    <path d="M106.86 52.0702C107.746 50.76 108.264 49.1799 108.264 47.4789C108.264 43.5205 105.461 40.2171 101.731 39.4444C101.423 17.6078 83.6291 0 61.7191 0C39.8094 0 22.0149 17.6078 21.707 39.4446C17.9774 40.2171 15.1744 43.5205 15.1744 47.4791C15.1744 49.1801 15.692 50.76 16.5784 52.0705C13.4343 55.0293 11.4683 59.2257 11.4683 63.8837C11.4683 71.7654 17.0895 78.3319 24.5413 79.7989C23.8217 81.2823 23.4178 82.9474 23.4178 84.7067C23.4178 90.9267 28.4601 95.9692 34.6801 95.9692H88.7582C94.9782 95.9692 100.02 90.9267 100.02 84.7067C100.02 82.9471 99.6163 81.2823 98.897 79.7989C106.349 78.3319 111.97 71.7656 111.97 63.8837C111.97 59.2257 110.004 55.0293 106.86 52.0702Z" fill="#596C76"/>
    <path d="M65.1563 95.9695H34.6803C31.5697 95.9695 28.7529 94.7094 26.7148 92.6711C24.6766 90.6327 23.4164 87.8186 23.4164 84.708C23.4164 82.9486 23.8219 81.2828 24.542 79.7999C20.8152 79.0672 17.5473 77.0566 15.2099 74.2477C12.8722 71.4361 11.4678 67.8259 11.4678 63.8837C11.4678 59.2267 13.4326 55.0283 16.5786 52.0695C16.1349 51.4154 15.7825 50.6929 15.5443 49.9221C15.3034 49.1489 15.1742 48.3299 15.1742 47.4782C15.1742 43.5207 17.9757 40.2174 21.7075 39.4442C21.8623 28.525 26.385 18.6655 33.6128 11.5339C40.8381 4.40239 50.7635 0.00125122 61.7181 0.00125122C65.2826 0.00125122 68.7382 0.467845 72.0263 1.33976C65.2065 3.15494 59.1017 6.72207 54.2266 11.5339C47.0013 18.6655 42.4758 28.525 42.3213 39.4442C42.3213 39.4442 43.5033 47.7631 42.4645 48.6656L65.1563 95.9695Z" fill="#465A61"/>
    <path d="M86.053 112.331V124.313C86.053 125.246 85.3 125.999 84.367 125.999H39.0703C38.1425 125.999 37.3843 125.246 37.3843 124.313V112.331C37.3843 107.086 39.2706 102.284 42.3989 98.5628C44.0391 96.6132 46.0217 94.9602 48.2528 93.695C51.3634 91.9281 54.9635 90.9191 58.7966 90.9191H64.6404C68.4787 90.9191 72.0761 91.9281 75.1894 93.6926C77.4178 94.9577 79.4004 96.6105 81.0381 98.5628C84.1692 102.284 86.053 107.086 86.053 112.331Z" fill="#97DA7B"/>
    <path d="M61.7187 116.886C60.6686 116.886 59.8174 116.034 59.8174 114.984V100.249C59.8174 99.1986 60.6686 98.3474 61.7187 98.3474C62.7688 98.3474 63.62 99.1986 63.62 100.249V114.984C63.62 116.034 62.7688 116.886 61.7187 116.886Z" fill="#80D261"/>
    <path d="M68.3776 91.2452C58.3337 93.0114 50.7011 101.782 50.7011 112.332V125.999H39.0722C38.1408 125.999 37.3857 125.244 37.3857 124.312V112.332C37.3857 100.506 46.9721 90.9201 58.7974 90.9201H64.6423C65.9159 90.9201 67.1653 91.032 68.3776 91.2452Z" fill="#80D261"/>
    <path d="M75.1886 93.6935C75.1434 101.092 69.1278 107.078 61.7187 107.078C58.1966 107.078 54.9944 105.725 52.594 103.513C49.9431 101.073 48.2756 97.5803 48.2515 93.696C50.4387 92.4517 52.8684 91.586 55.45 91.1812V80.8391H68.094V91.1972C70.6381 91.6074 73.0306 92.468 75.1886 93.6935Z" fill="#FFDFCF"/>
    <path d="M87.5735 43.7656C89.5882 42.7202 91.9889 42.4194 94.3379 43.0969C99.197 44.5009 101.999 49.5818 100.595 54.4438C99.1879 59.3029 93.2651 65.0249 88.4033 63.618C88.0386 63.5116 87.6891 63.3687 87.3549 63.1895H36.0843C35.7501 63.3689 35.4006 63.5116 35.0359 63.618C30.1738 65.0249 24.2513 59.3029 22.8474 54.4438C21.4405 49.5818 24.2422 44.5009 29.1011 43.0969C31.4501 42.4192 33.8507 42.7202 35.8655 43.7656H87.5735Z" fill="#FFCEBF"/>
    <path d="M87.5715 40.0193V59.8005C87.5715 71.8798 79.2887 82.0221 68.0939 84.862C66.0531 85.3788 63.9192 85.6532 61.7186 85.6532C47.4415 85.6532 38.401 74.0801 38.401 59.8005L35.8657 40.9758C35.8657 39.5505 37.2165 38.5142 38.5912 38.8897C40.8558 39.5079 44.3803 40.2218 48.6136 40.2351C55.6817 40.2538 64.7237 38.3143 73.1396 30.6869C73.8936 30.0023 75.0736 30.1728 75.6091 31.0386C77.0372 33.3457 80.1754 37.1422 85.6635 37.8748C86.751 38.021 87.5715 38.9242 87.5715 40.0193Z" fill="#FFDFCF"/>
    <path d="M68.0944 84.862C66.0535 85.3788 63.9197 85.6532 61.7191 85.6532C47.442 85.6532 35.8662 74.0801 35.8662 59.8005V40.9758C35.8662 39.5505 37.217 38.5142 38.5917 38.8897C40.8563 39.5079 44.3808 40.2218 48.6141 40.2351V59.8005C48.6141 71.8796 56.8969 82.0245 68.0944 84.862Z" fill="#FFCEBF"/>
    <path d="M51.769 53.0462C50.7189 53.0462 49.8677 52.195 49.8677 51.1449V47.7914C49.8677 46.7413 50.7189 45.8901 51.769 45.8901C52.8191 45.8901 53.6703 46.7413 53.6703 47.7914V51.1449C53.6703 52.1948 52.8191 53.0462 51.769 53.0462Z" fill="#465A61"/>
    <path d="M71.6699 53.0462C70.6198 53.0462 69.7686 52.195 69.7686 51.1449V47.7914C69.7686 46.7413 70.6198 45.8901 71.6699 45.8901C72.72 45.8901 73.5712 46.7413 73.5712 47.7914V51.1449C73.5712 52.1948 72.72 53.0462 71.6699 53.0462Z" fill="#465A61"/>
    <path d="M33.3313 58.6422C32.2812 58.6422 31.43 57.7909 31.43 56.7409C31.43 54.7433 30.0848 52.9877 28.1587 52.4716C27.1443 52.1997 26.5426 51.157 26.8143 50.1428C27.0862 49.1284 28.1291 48.528 29.143 48.7984C32.7286 49.7592 35.2329 53.0253 35.2329 56.7411C35.2329 57.7907 34.3816 58.6422 33.3313 58.6422Z" fill="#FFB09E"/>
    <path d="M90.1074 58.6422C89.0573 58.6422 88.2061 57.7909 88.2061 56.7408C88.2061 53.0251 90.7103 49.7592 94.2959 48.7982C95.3108 48.5267 96.353 49.1284 96.6247 50.1426C96.8964 51.157 96.2944 52.1997 95.2803 52.4714C93.3543 52.9874 92.0089 54.7431 92.0089 56.7406C92.0087 57.7907 91.1575 58.6422 90.1074 58.6422Z" fill="#FFB09E"/>
    <path d="M61.7196 69.5828C58.8036 69.5828 55.8876 68.4729 53.6679 66.2529C52.9252 65.5104 52.9252 64.3065 53.6679 63.5638C54.4103 62.8213 55.6142 62.8213 56.3569 63.5638C59.314 66.5206 64.1251 66.5206 67.0824 63.5638C67.8249 62.8213 69.0288 62.8213 69.7715 63.5638C70.5142 64.3063 70.5142 65.5102 69.7715 66.2529C67.5515 68.4726 64.6355 69.5828 61.7196 69.5828Z" fill="#FE646F"/>
    <path d="M60.2933 81.9925V94.4739C56.9499 96.6932 54.2643 99.8235 52.594 103.513C49.9431 101.073 48.2756 97.5803 48.2515 93.696C50.4387 92.4518 52.8684 91.586 55.45 91.1812V81.9925H60.2933Z" fill="#FFCEBF"/>
    <path d="M117.118 92.1934L100.956 95.9699L84.7942 92.1934C82.0087 91.5424 79.3433 93.6566 79.3433 96.5175V121.558C79.3433 124.011 81.3314 125.999 83.7838 125.999H118.129C120.581 125.999 122.569 124.011 122.569 121.558V96.5175C122.569 93.6569 119.904 91.5427 117.118 92.1934Z" fill="#FD8087"/>
    <path d="M90.369 126H83.785C81.331 126 79.3433 124.012 79.3433 121.558V96.518C79.3433 93.6583 82.0077 91.5439 84.794 92.1953L87.8032 92.8977C86.6801 93.6911 85.9297 94.9993 85.9297 96.518V121.558C85.93 124.012 87.9174 126 90.369 126Z" fill="#FE646F"/>
    <path d="M107.401 106.155C106.538 106.155 105.756 105.563 105.551 104.686C105.312 103.664 105.948 102.641 106.97 102.402L116.686 100.132C117.708 99.8926 118.731 100.528 118.97 101.551C119.209 102.573 118.574 103.596 117.551 103.835L107.836 106.105C107.69 106.139 107.544 106.155 107.401 106.155Z" fill="#596C76"/>
    <path d="M101.057 113.376H97.1785C93.6734 113.376 90.832 116.218 90.832 119.723V125.998H107.403V119.723C107.403 116.218 104.562 113.376 101.057 113.376Z" fill="#FFDFCF"/>
    <path d="M102.107 113.467C99.1135 113.974 96.8317 116.583 96.8317 119.722V125.999H90.813V119.722C90.813 116.218 93.6549 113.376 97.1585 113.376H101.037C101.403 113.376 101.76 113.406 102.107 113.467Z" fill="#FFCEBF"/>
    <path d="M29.8703 113.204C29.2464 113.204 28.6351 112.897 28.2714 112.334L3.73562 74.355C3.16591 73.473 3.41889 72.2959 4.30089 71.726C5.18314 71.1565 6.35996 71.4093 6.92991 72.2913L31.4657 110.27C32.0354 111.152 31.7824 112.329 30.9004 112.899C30.5812 113.105 30.2239 113.204 29.8703 113.204Z" fill="#2ED1E2"/>
    <path d="M34.7704 110.77H32.4323C28.8725 110.77 25.9868 113.655 25.9868 117.215V119.553C25.9868 123.113 28.8725 125.999 32.4323 125.999H34.7704C38.3301 125.999 41.2158 123.113 41.2158 119.553V117.215C41.2158 113.655 38.3299 110.77 34.7704 110.77Z" fill="#FFDFCF"/>
    <path d="M36.3939 125.793C35.8766 125.927 35.3317 125.998 34.7714 125.998H32.434C28.8745 125.998 25.9868 123.113 25.9868 119.553V117.213C25.9868 113.654 28.8745 110.769 32.434 110.769H34.7714C35.3317 110.769 35.8768 110.84 36.3939 110.974C33.6204 111.694 31.5719 114.214 31.5719 117.213V119.553C31.5717 122.552 33.6202 125.072 36.3939 125.793Z" fill="#FFCEBF"/>
  </g>
  <defs>
    <clipPath id="clip0_3_1796">
      <rect width="126" height="126" fill="white"/>
    </clipPath>
  </defs>
</svg>