<svg xmlns="http://www.w3.org/2000/svg" width="28" height="28" viewBox="0 0 28 28" fill="none">
  <g clip-path="url(#clip0_3_1548)">
    <path d="M14 0C6.26886 0 0 6.26886 0 14C0 21.7311 6.26886 28 14 28C15.2911 28 16.3333 26.9578 16.3333 25.6667C16.3333 25.06 16.1078 24.5155 15.7267 24.1033C15.3611 23.6911 15.1433 23.1545 15.1433 22.5555C15.1433 21.2644 16.1855 20.2222 17.4767 20.2222H20.2222C24.5155 20.2222 28 16.7377 28 12.4444C28 5.56886 21.7311 0 14 0ZM5.44447 14C4.15333 14 3.11114 12.9578 3.11114 11.6667C3.11114 10.3755 4.15333 9.33333 5.44447 9.33333C6.7356 9.33333 7.7778 10.3755 7.7778 11.6667C7.7778 12.9578 6.73553 14 5.44447 14ZM10.1111 7.7778C8.82 7.7778 7.7778 6.7356 7.7778 5.44447C7.7778 4.15333 8.82 3.11114 10.1111 3.11114C11.4023 3.11114 12.4445 4.15333 12.4445 5.44447C12.4445 6.7356 11.4022 7.7778 10.1111 7.7778ZM17.8889 7.7778C16.5977 7.7778 15.5555 6.7356 15.5555 5.44447C15.5555 4.15333 16.5977 3.11114 17.8889 3.11114C19.18 3.11114 20.2222 4.15333 20.2222 5.44447C20.2222 6.7356 19.18 7.7778 17.8889 7.7778ZM22.5555 14C21.2644 14 20.2222 12.9578 20.2222 11.6667C20.2222 10.3755 21.2644 9.33333 22.5555 9.33333C23.8467 9.33333 24.8889 10.3755 24.8889 11.6667C24.8889 12.9578 23.8467 14 22.5555 14Z" fill="#37DFCF"/>
  </g>
  <defs>
    <clipPath id="clip0_3_1548">
      <rect width="28" height="28" fill="white"/>
    </clipPath>
  </defs>
</svg>