<svg xmlns="http://www.w3.org/2000/svg" width="28" height="28" viewBox="0 0 28 28" fill="none">
  <g clip-path="url(#clip0_3_1461)">
    <path d="M28 8.20312V26.3594H19.6563C17.3636 26.3594 16.1577 27.914 16.0349 28H11.9651C11.8405 27.9128 10.6519 26.3594 8.34367 26.3594H0V6.5625H1.64062V24.7188H8.35078C10.9146 24.7188 12.3418 26.1653 12.6973 26.3594H15.3027C15.6581 26.1653 17.0856 24.7188 19.6492 24.7188H26.3594V8.20312H28Z" fill="#FFC645"/>
    <path d="M11.5352 23.7327C10.5388 23.3018 9.46094 23.0781 8.35078 23.0781H3.28125V3.28125H4.92187V19.7969H7.38281C9.61844 19.7969 11.4472 21.5474 11.5352 23.7327Z" fill="#FFC645"/>
    <path d="M19.6492 4.92188C17.9116 4.92188 16.238 5.37709 14.7627 6.24755C14.8008 6.6202 14.8203 6.99913 14.8203 7.38281V24.6844C14.9302 24.6047 15.0558 24.5164 15.1989 24.4224C17.7318 22.7331 19.4771 23.0781 24.7188 23.0781V4.92188H19.6492Z" fill="#FFC645"/>
    <path d="M13.1797 23.8984C13.1797 20.7322 10.5792 18.1562 7.38281 18.1562H6.5625V0C10.6636 0 13.1797 3.31193 13.1797 7.38281V23.8984Z" fill="#FFC645"/>
  </g>
  <defs>
    <clipPath id="clip0_3_1461">
      <rect width="28" height="28" fill="white"/>
    </clipPath>
  </defs>
</svg>