<svg xmlns="http://www.w3.org/2000/svg" width="31" height="31" viewBox="0 0 31 31" fill="none">
  <g clip-path="url(#clip0_3_1226)">
    <path d="M16.672 8.3557C15.9279 9.10898 14.7219 9.10898 13.9778 8.3557C13.234 7.60241 13.234 6.38099 13.9778 5.62771C14.7219 4.87442 15.9279 4.87442 16.672 5.62771C17.4159 6.38099 17.4159 7.60241 16.672 8.3557Z" fill="#9C4DF4"/>
    <path d="M19.2747 11.2785C19.0426 11.2785 18.8105 11.1886 18.6338 11.0087C18.2804 10.6497 18.2811 10.068 18.6349 9.7097C19.352 8.98358 19.7468 8.01829 19.7468 6.9917C19.7468 5.9651 19.352 4.99981 18.6349 4.27369C18.2811 3.91516 18.2804 3.33371 18.6338 2.97449C18.987 2.61549 19.5603 2.6148 19.9142 2.97333C20.9741 4.04659 21.5578 5.47352 21.5578 6.9917C21.5578 8.50965 20.9741 9.9368 19.9142 11.0101C19.7375 11.1891 19.5061 11.2785 19.2747 11.2785Z" fill="#9C4DF4"/>
    <path d="M21.3225 13.983C21.0904 13.983 20.8583 13.8931 20.6816 13.7134C20.3282 13.3542 20.3289 12.7727 20.6828 12.4142C22.1133 10.9657 22.9013 9.03996 22.9013 6.99164C22.9013 4.94333 22.1133 3.01762 20.6828 1.5691C20.3289 1.21057 20.3282 0.629124 20.6816 0.269897C21.035 -0.0890977 21.6082 -0.0897943 21.962 0.268736C23.7354 2.06441 24.7123 4.45198 24.712 6.99164C24.712 9.53131 23.7354 11.9191 21.962 13.7148C21.7853 13.8936 21.5539 13.983 21.3225 13.983Z" fill="#9C4DF4"/>
    <path d="M11.3712 11.2781C11.1398 11.2781 10.9084 11.1887 10.7315 11.0097C9.67154 9.9364 9.08789 8.50924 9.08789 6.9913C9.08789 5.47312 9.67154 4.04619 10.7315 2.97292C11.0853 2.61439 11.6587 2.61486 12.0119 2.97409C12.3653 3.33308 12.3646 3.91476 12.0107 4.27329C11.2936 4.99941 10.8988 5.9647 10.8988 6.9913C10.8988 8.01789 11.2936 8.98318 12.0107 9.7093C12.3646 10.0676 12.3653 10.6493 12.0119 11.0083C11.8352 11.188 11.6031 11.2781 11.3712 11.2781Z" fill="#9C4DF4"/>
    <path d="M9.32285 13.9838C9.09122 13.9838 8.85982 13.8944 8.68313 13.7154C6.90975 11.9197 5.93311 9.53216 5.93311 6.99249C5.93311 4.45259 6.90975 2.06502 8.68313 0.269352C9.03698 -0.0889458 9.61033 -0.0884814 9.96349 0.270745C10.3169 0.62974 10.3162 1.21119 9.96235 1.56972C8.53183 3.01824 7.74379 4.94395 7.74379 6.99226C7.74379 9.04057 8.53183 10.9665 9.96235 12.415C10.3162 12.7736 10.3169 13.355 9.96349 13.7142C9.7868 13.894 9.55471 13.9838 9.32285 13.9838Z" fill="#9C4DF4"/>
    <path d="M27.2561 15.571H3.38906C2.21925 15.571 1.271 16.5331 1.271 17.7197V28.2872C1.271 29.474 2.21925 30.4361 3.38906 30.4361H27.2559C28.4257 30.4361 29.374 29.474 29.374 28.2872V17.7197C29.374 16.5331 28.4257 15.571 27.2561 15.571ZM8.23608 27.6791H4.90014C4.40026 27.6791 3.99491 27.2678 3.99491 26.7605V19.2467C3.99491 18.7395 4.40026 18.3281 4.90014 18.3281C5.40024 18.3281 5.80559 18.7393 5.80559 19.2467V25.8418H8.23608C8.73619 25.8418 9.14154 26.2531 9.14154 26.7605C9.14154 27.2678 8.73619 27.6791 8.23608 27.6791ZM11.9467 26.7605C11.9467 27.2678 11.5414 27.6791 11.0413 27.6791C10.5411 27.6791 10.1358 27.2678 10.1358 26.7605V19.2467C10.1358 18.7395 10.5411 18.3281 11.0413 18.3281C11.5414 18.3281 11.9467 18.7393 11.9467 19.2467V26.7605ZM19.5648 19.5123L17.3289 27.0259C17.3286 27.0266 17.3284 27.0273 17.3282 27.028C17.0853 27.8688 15.8473 27.8481 15.596 27.028C15.5958 27.0273 15.5955 27.0266 15.5953 27.0259L13.3594 19.5123C13.2149 19.0265 13.4857 18.5141 13.9645 18.3673C14.4429 18.2208 14.9485 18.4955 15.0929 18.9813L16.4621 23.582L17.8312 18.9813C17.9759 18.4955 18.481 18.2205 18.9599 18.3673C19.4385 18.5141 19.7094 19.0265 19.5648 19.5123ZM25.1351 21.6119C25.6352 21.6119 26.0405 22.0232 26.0405 22.5306C26.0405 23.0377 25.6352 23.4492 25.1351 23.4492H22.5657V25.8418H25.6228C26.1229 25.8418 26.5283 26.2531 26.5283 26.7605C26.5283 27.2678 26.1229 27.6791 25.6228 27.6791H21.6602C21.1601 27.6791 20.7547 27.2678 20.7547 26.7605V19.2467C20.7547 18.7395 21.1601 18.3281 21.6602 18.3281H25.7448C26.2447 18.3281 26.6503 18.7393 26.6503 19.2467C26.6503 19.754 26.2447 20.1653 25.7448 20.1653H22.5654V21.6119H25.1351Z" fill="#9C4DF4"/>
  </g>
  <defs>
    <clipPath id="clip0_3_1226">
      <rect width="30" height="30.4361" fill="white" transform="translate(0.333496)"/>
    </clipPath>
  </defs>
</svg>