<svg xmlns="http://www.w3.org/2000/svg" width="48" height="48" viewBox="0 0 48 48" fill="none">
  <g clip-path="url(#clip0_3_7)">
    <path d="M7.60716 36.4299C6.33469 35.2869 5.18288 34.3124 4.10981 33.485C3.03684 32.6575 2.04253 31.9773 1.08506 31.4227C-0.361687 30.5846 -0.361687 28.5094 1.08506 27.6713C2.04253 27.1167 3.03684 26.4365 4.10981 25.609C5.18278 24.7816 6.33459 23.8072 7.60716 22.6641V36.4299Z" fill="#3F4E6A"/>
    <path d="M17.663 28.7524C15.9418 27.2078 8.57472 24.343 6.11762 24.646C6.03887 24.8277 5.96416 25.0114 5.89394 25.1971C5.38103 26.5553 5.10156 28.02 5.10156 29.547C5.10156 31.0741 5.38112 32.5388 5.89394 33.897C7.06141 36.9887 9.43787 39.5287 12.4784 40.9962C14.2955 41.8733 16.3498 42.3674 18.5249 42.3674C18.5513 42.3674 18.5776 42.3665 18.604 42.3663C18.085 39.1107 17.6879 33.909 17.663 28.7524Z" fill="#F7E969"/>
    <path d="M18.6041 16.7277C18.5776 16.7275 18.5515 16.7266 18.525 16.7266C16.3499 16.7266 14.2956 17.2207 12.4785 18.0977C9.62074 19.4772 7.34974 21.8041 6.11768 24.6459C6.46568 25.2426 6.88183 25.8039 7.36455 26.317C9.09321 28.1552 11.5315 29.2094 14.0543 29.2094C15.106 29.2094 16.3635 29.0445 17.6631 28.7523C17.6415 24.2761 17.9004 19.8336 18.6041 16.7277Z" fill="#F8D071"/>
    <path d="M20.3253 27.7354C18.3102 27.2082 14.0308 27.3548 12.4869 29.0728C12.4827 29.2305 12.479 29.3883 12.479 29.5471C12.479 32.7104 13.3242 35.6491 14.7715 38.0869C15.7826 39.7898 17.0883 41.2467 18.6043 42.3665C20.75 42.3547 22.7767 41.8629 24.5717 40.9964C25.7926 40.4071 26.9062 39.6446 27.8776 38.7432C27.7473 38.7024 21.6238 29.0768 20.3253 27.7354Z" fill="#3F4E6A"/>
    <path d="M24.5717 18.0977C22.7766 17.2313 20.7499 16.7395 18.6042 16.7277C17.0882 17.8473 15.7824 19.3044 14.7714 21.0073C13.3968 23.3226 12.5668 26.0903 12.4868 29.0728C13.0019 29.1627 13.5262 29.2095 14.0543 29.2095C15.1268 29.2095 16.4131 29.0389 17.7401 28.7357C18.0273 29.8639 18.456 30.9374 19.0246 31.9483C20.9438 35.3605 24.1708 37.588 27.8776 38.743C29.3254 37.3995 30.4575 35.7472 31.1561 33.897C31.669 32.5389 31.9485 31.0741 31.9485 29.547C31.9485 28.0199 31.6689 26.5553 31.1561 25.197C29.9886 22.1053 27.6122 19.5654 24.5717 18.0977Z" fill="#223661"/>
    <path d="M26.3917 22.1664C24.9864 23.5717 22.2535 23.0649 19.7169 21.9485C17.7015 21.0615 15.81 19.7898 14.8068 18.7866C13.6283 17.6081 13.0628 16.0489 13.1102 14.505C13.1539 13.0804 13.7194 11.6687 14.8068 10.5813C15.8942 9.49389 17.3058 8.92839 18.7304 8.8847C20.2744 8.83736 21.8335 9.40286 23.0119 10.5813C24.0152 11.5845 25.2869 13.476 26.1739 15.4915C27.2902 18.0281 27.797 20.761 26.3917 22.1664Z" fill="#81DDFD"/>
    <path d="M24.1558 11.9568C21.6155 13.6868 19.6466 16.1053 18.4895 18.9683C18.2237 19.6259 18.0033 20.3004 17.8267 20.9888C18.4268 21.3342 19.0652 21.6617 19.7172 21.9487C22.2538 23.0649 24.9867 23.5718 26.392 22.1664C27.7973 20.7611 27.2905 18.0282 26.1743 15.4916C25.6028 14.1933 24.8719 12.9479 24.1558 11.9568Z" fill="#30CDFA"/>
    <path d="M17.3086 25.3638C19.4221 23.2346 20.4769 18.6475 20.3078 15.6845C20.1278 15.6075 19.9459 15.5328 19.7622 15.4614C17.7099 14.6634 15.4732 14.2252 14.0544 14.2252C12.3878 14.2252 10.8855 14.9279 9.82725 16.0531C8.85075 17.0913 8.25244 18.4894 8.25244 20.0272C8.25244 21.565 8.85075 22.9631 9.82725 24.0014C10.8855 25.1266 12.3879 25.8292 14.0544 25.8292C14.9133 25.8292 16.0725 25.6676 17.3086 25.3638Z" fill="#A3E6FF"/>
    <path d="M24.6359 20.0273C24.6359 18.1811 22.6589 16.692 20.3076 15.6846C19.576 16.6931 18.9643 17.7933 18.4894 18.9683C17.6825 20.9649 17.2811 23.1216 17.3084 25.3638C18.1141 25.1658 18.9523 24.9079 19.7622 24.593C22.3451 23.5888 24.6359 22.0147 24.6359 20.0273Z" fill="#81DDFD"/>
    <path d="M47.0625 20.2349C45.8966 17.3502 43.6832 15.0018 40.6472 13.6461C38.8256 12.8327 36.708 12.3767 34.343 12.3767C34.2408 12.3767 34.1396 12.3787 34.0383 12.3804C26.0693 17.4894 26.1161 31.6713 35.2525 36.2846C36.984 36.2081 38.6277 35.9132 40.1233 35.412C43.0176 34.4421 45.3588 32.7025 46.7151 30.291C47.5394 28.8256 48 27.1121 48 25.1726C48 23.4224 47.6766 21.7542 47.0625 20.2349Z" fill="#F7E969"/>
    <path d="M34.0385 12.3804C31.7962 12.4179 29.7817 12.8679 28.0388 13.6461C25.0029 15.0017 22.7895 17.3502 21.6235 20.2349C21.0095 21.7542 20.686 23.4223 20.686 25.1726C20.686 27.1122 21.1466 28.8256 21.9709 30.291C23.3273 32.7025 25.6684 34.4422 28.5626 35.412C30.3181 36.0003 32.277 36.3054 34.3431 36.3054C34.6489 36.3054 34.952 36.2979 35.2527 36.2846C30.8073 30.6248 31.327 18.7204 34.0385 12.3804Z" fill="#F8D071"/>
    <path d="M30.5336 17.8129C30.1453 17.8129 29.8305 17.4981 29.8305 17.1097C29.8305 16.2617 29.5194 14.391 28.8364 12.2877C28.4108 10.9776 27.9005 9.77718 27.3604 8.81662C27.1701 8.47809 27.2902 8.04937 27.6287 7.85906C27.9672 7.66893 28.3958 7.78893 28.5862 8.12737C29.1794 9.18262 29.7135 10.4361 30.1738 11.8534C30.8095 13.811 31.2367 15.9233 31.2367 17.1096C31.2368 17.4981 30.9219 17.8129 30.5336 17.8129Z" fill="#3F4E6A"/>
    <path d="M27.9733 10.0919C29.2047 10.0919 30.203 9.09363 30.203 7.86222C30.203 6.63082 29.2047 5.63257 27.9733 5.63257C26.7419 5.63257 25.7437 6.63082 25.7437 7.86222C25.7437 9.09363 26.7419 10.0919 27.9733 10.0919Z" fill="#223661"/>
    <path d="M38.1519 17.8128C37.7635 17.8128 37.4487 17.4981 37.4487 17.1097C37.4487 15.9234 37.8759 13.811 38.5116 11.8534C38.9719 10.4362 39.506 9.18264 40.0992 8.12739C40.2895 7.78886 40.7181 7.66867 41.0567 7.85908C41.3952 8.04939 41.5153 8.47802 41.325 8.81664C40.785 9.7772 40.2746 10.9776 39.849 12.2877C39.166 14.391 38.8549 16.2617 38.8549 17.1098C38.855 17.4981 38.5402 17.8128 38.1519 17.8128Z" fill="#3F4E6A"/>
    <path d="M40.7126 10.0919C41.944 10.0919 42.9422 9.09363 42.9422 7.86222C42.9422 6.63082 41.944 5.63257 40.7126 5.63257C39.4812 5.63257 38.4829 6.63082 38.4829 7.86222C38.4829 9.09363 39.4812 10.0919 40.7126 10.0919Z" fill="#223661"/>
    <path d="M26.7735 28.721C28.316 28.721 29.5665 27.7252 29.5665 26.4968C29.5665 25.2684 28.316 24.2726 26.7735 24.2726C25.2309 24.2726 23.9805 25.2684 23.9805 26.4968C23.9805 27.7252 25.2309 28.721 26.7735 28.721Z" fill="#FFA1AC"/>
    <path d="M41.9126 28.721C43.4552 28.721 44.7056 27.7252 44.7056 26.4968C44.7056 25.2684 43.4552 24.2726 41.9126 24.2726C40.3701 24.2726 39.1196 25.2684 39.1196 26.4968C39.1196 27.7252 40.3701 28.721 41.9126 28.721Z" fill="#FFA1AC"/>
    <path d="M29.7306 24.7795C29.3423 24.7795 29.0275 24.4648 29.0275 24.0764C29.0275 23.731 28.7465 23.4501 28.4012 23.4501C28.0559 23.4501 27.7749 23.731 27.7749 24.0764C27.7749 24.4648 27.4601 24.7795 27.0718 24.7795C26.6835 24.7795 26.3687 24.4648 26.3687 24.0764C26.3687 22.9556 27.2805 22.0438 28.4012 22.0438C29.522 22.0438 30.4337 22.9556 30.4337 24.0764C30.4337 24.4648 30.1189 24.7795 29.7306 24.7795Z" fill="#425460"/>
    <path d="M41.6144 24.7795C41.2261 24.7795 40.9113 24.4648 40.9113 24.0764C40.9113 23.731 40.6303 23.4501 40.2849 23.4501C39.9396 23.4501 39.6587 23.731 39.6587 24.0764C39.6587 24.4648 39.3439 24.7795 38.9556 24.7795C38.5673 24.7795 38.2524 24.4648 38.2524 24.0764C38.2524 22.9556 39.1643 22.0438 40.2849 22.0438C41.4057 22.0438 42.3175 22.9556 42.3175 24.0764C42.3175 24.4648 42.0027 24.7795 41.6144 24.7795Z" fill="#425460"/>
    <path d="M34.3428 26.9758C33.5991 26.9758 32.8918 26.6537 32.4025 26.0922C32.1474 25.7994 32.1779 25.3554 32.4707 25.1002C32.7635 24.845 33.2076 24.8756 33.4627 25.1683C33.6849 25.4234 34.0057 25.5696 34.3429 25.5696C34.68 25.5696 35.0008 25.4233 35.2229 25.1684C35.478 24.8755 35.9221 24.8451 36.215 25.1002C36.5077 25.3553 36.5382 25.7994 36.2832 26.0921C35.7937 26.6538 35.0866 26.9758 34.3428 26.9758Z" fill="#425460"/>
  </g>
  <defs>
    <clipPath id="clip0_3_7">
      <rect width="48" height="48" fill="white"/>
    </clipPath>
  </defs>
</svg>