<svg xmlns="http://www.w3.org/2000/svg" width="121" height="120" viewBox="0 0 121 120" fill="none">
  <g clip-path="url(#clip0_3_1825)">
    <path d="M60.5005 100.898C59.1577 100.898 57.9302 100.145 57.33 98.9541C47.3389 79.1373 12.389 85.7606 12.0376 85.83C10.1177 86.2073 8.25192 84.9717 7.86978 83.0686C7.48764 81.1655 8.73118 79.3154 10.6499 78.9348C11.0561 78.8542 20.7282 76.9722 31.9761 77.9425C44.8426 79.052 54.5759 83.4891 60.5005 90.8746C66.4252 83.4891 76.1585 79.0522 89.0249 77.9425C100.272 76.9715 109.945 78.8544 110.351 78.9348C112.271 79.3156 113.516 81.1676 113.132 83.0714C112.748 84.9755 110.881 86.2092 108.961 85.8295C108.612 85.7606 73.6622 79.137 63.6711 98.9541C63.0708 100.145 61.8431 100.898 60.5005 100.898Z" fill="#E2DFF4"/>
    <path d="M63.6705 98.9541C73.6614 79.137 108.611 85.7606 108.961 85.8295C110.88 86.2092 112.747 84.9755 113.132 83.0714C113.515 81.1676 112.271 79.3156 110.351 78.9348C109.944 78.8542 100.272 76.9714 89.0244 77.9424C76.1579 79.052 66.4247 83.4891 60.5 90.8746V100.898C61.8426 100.898 63.0703 100.145 63.6705 98.9541Z" fill="#BEBCDD"/>
    <path d="M114.985 100.279C114.741 99.3108 114.094 98.4929 113.205 98.0241C111.86 97.3187 81.02 81.3954 60.4999 93.2146C39.9798 81.3975 9.13939 97.3184 7.7947 98.0241C6.90612 98.4929 6.25859 99.3108 6.01517 100.279L2.82715 112.918L6.59275 115.568L45.9333 105.435C45.9333 105.435 61.0581 128.095 74.4934 105.435L118.173 116.598L118.327 112.959L114.985 100.279Z" fill="#F9F9F9"/>
    <path d="M118.173 112.92L114.985 100.279C114.741 99.3111 114.094 98.4917 113.205 98.0248C111.86 97.3184 81.0208 81.3966 60.5 93.2143V118.241C67.5451 118.241 73.8245 113.925 77.0089 107.923L116.581 118.602L118.329 112.96L118.173 112.92Z" fill="#E2DFF4"/>
    <path d="M117.457 119.883C117.167 119.883 116.874 119.847 116.581 119.773L77.0092 109.798C73.8243 115.8 67.5449 119.647 60.5 119.647C53.4552 119.647 47.1756 115.8 43.9908 109.798L4.41895 119.773C2.52032 120.251 0.592143 119.114 0.11004 117.232C-0.372062 115.35 0.774822 113.437 2.67251 112.959L45.1992 102.239C47.0231 101.779 48.8887 102.811 49.4535 104.589C50.9787 109.39 55.4179 112.616 60.5 112.616C65.5822 112.616 70.0213 109.39 71.5466 104.589C72.1114 102.811 73.9774 101.779 75.8009 102.239L118.328 112.959C120.225 113.437 121.372 115.35 120.89 117.232C120.482 118.823 119.04 119.882 117.457 119.883Z" fill="#BC8173"/>
    <path d="M77.0094 109.798L116.581 119.773C116.874 119.847 117.168 119.883 117.457 119.883C119.04 119.882 120.482 118.823 120.89 117.232C121.372 115.35 120.225 113.437 118.328 112.959L75.8009 102.239C73.9774 101.779 72.1114 102.811 71.5465 104.589C70.0213 109.39 65.5822 112.616 60.5 112.616V119.647C67.5451 119.647 73.8247 115.8 77.0094 109.798Z" fill="#865240"/>
    <path d="M114.383 8.55506H111.31V5.50822C111.31 3.56669 109.723 1.99265 107.765 1.99265C105.808 1.99265 104.221 3.56669 104.221 5.50822V8.55506H101.148C99.1907 8.55506 97.6035 10.1291 97.6035 12.0706C97.6035 14.0122 99.1907 15.5862 101.148 15.5862H104.221V18.633C104.221 20.5746 105.808 22.1486 107.765 22.1486C109.723 22.1486 111.31 20.5746 111.31 18.633V15.5862H114.383C116.34 15.5862 117.927 14.0122 117.927 12.0706C117.927 10.1291 116.34 8.55506 114.383 8.55506Z" fill="#31BEBE"/>
    <path d="M79.4076 69.0239C78.0192 69.0239 76.7014 68.2097 76.134 66.8597C75.3809 65.0675 76.2357 63.009 78.0426 62.2625L100.73 52.8876C102.537 52.1402 104.612 52.9884 105.365 54.7804C106.118 56.5727 105.264 58.6312 103.457 59.3776L80.7695 68.7525C80.3238 68.9367 79.8618 69.0239 79.4076 69.0239Z" fill="#FABE2C"/>
    <path d="M68.0651 65.2739C67.7933 65.2739 67.5173 65.2425 67.2411 65.1774C65.3365 64.7276 64.1603 62.832 64.6138 60.9432L74.0668 21.5687C74.5203 19.6799 76.4306 18.5137 78.3363 18.9632C80.2408 19.413 81.417 21.3086 80.9635 23.1974L71.5105 62.5719C71.1229 64.1867 69.6691 65.2739 68.0651 65.2739Z" fill="#FABE2C"/>
    <path d="M52.9335 65.2735C51.1977 65.2735 49.6812 64.0083 49.4286 62.2545L45.6474 36.0049C45.3706 34.0828 46.7172 32.302 48.6556 32.0274C50.5911 31.7522 52.3893 33.0884 52.6662 35.0107L56.4474 61.2603C56.7242 63.1824 55.3776 64.9632 53.4392 65.2378C53.2693 65.2618 53.1004 65.2735 52.9335 65.2735Z" fill="#FED843"/>
    <path d="M37.813 69.0229C36.9058 69.0229 35.9985 68.6796 35.3065 67.9931L12.6193 45.4934C11.235 44.1207 11.235 41.8946 12.6193 40.5217C14.0035 39.149 16.2481 39.149 17.6325 40.5217L40.3197 63.0214C41.7041 64.3941 41.7041 66.6202 40.3197 67.9931C39.6273 68.6796 38.7203 69.0229 37.813 69.0229Z" fill="#FED843"/>
    <path d="M5.67285 67.1483C7.63066 67.1483 9.21777 65.5743 9.21777 63.6327C9.21777 61.6911 7.63066 60.1171 5.67285 60.1171C3.71505 60.1171 2.12793 61.6911 2.12793 63.6327C2.12793 65.5743 3.71505 67.1483 5.67285 67.1483Z" fill="#5ED8D3"/>
    <path d="M60.5 18.3985C62.4578 18.3985 64.0449 16.8245 64.0449 14.8829C64.0449 12.9412 62.4578 11.3672 60.5 11.3672C58.5422 11.3672 56.9551 12.9412 56.9551 14.8829C56.9551 16.8245 58.5422 18.3985 60.5 18.3985Z" fill="#FED843"/>
    <path d="M92.6406 39.023C94.5984 39.023 96.1855 37.449 96.1855 35.5074C96.1855 33.5658 94.5984 31.9918 92.6406 31.9918C90.6828 31.9918 89.0957 33.5658 89.0957 35.5074C89.0957 37.449 90.6828 39.023 92.6406 39.023Z" fill="#AD77E3"/>
    <path d="M64.0449 14.8829C64.0449 12.9411 62.4577 11.3672 60.5 11.3672V18.3985C62.4577 18.3985 64.0449 16.8244 64.0449 14.8829Z" fill="#FABE2C"/>
    <path d="M11.3446 22.1486C5.21998 22.1486 0.237305 17.2071 0.237305 11.1331C0.237305 5.05914 5.21998 0.117645 11.3446 0.117645C17.4692 0.117645 22.4518 5.05914 22.4518 11.1331C22.4518 17.2071 17.4692 22.1486 11.3446 22.1486Z" fill="#FF6666"/>
  </g>
  <defs>
    <clipPath id="clip0_3_1825">
      <rect width="121" height="120" fill="white"/>
    </clipPath>
  </defs>
</svg>